# xmcd
#
# Track frame offsets: 
#        150
#        14030
#        31740
#        52057
#        78570
#        90695
#        108470
#        116895
#        132465
#        146585
#        165717
#
# Disc length: 2344 seconds
#
# Revision: 1
# Processed by: cddbd v1.5.1PL2 Copyright (c) Steve Scherf et al.
# Submitted via: ExactAudioCopy v0.95a5
#
DISCID=9c09260b
DTITLE=Gillian Welch - Hell Among the Yearlings
DYEAR=1998
DGENRE=Bluegrass
TTITLE0=Caleb Meyer
TTITLE1=Good Til Now
TTITLE2=The Devil Had a Hold on Me
TTITLE3=My Morphine
TTITLE4=One Morning
TTITLE5=Miner's Refrain
TTITLE6=Honey Now
TTITLE7=I'm Not Afraid to Die
TTITLE8=Rock of Ages
TTITLE9=Whiskey Girl
TTITLE10=Winter's Come and Gone
EXTD=
EXTT0=
EXTT1=
EXTT2=
EXTT3=
EXTT4=
EXTT5=
EXTT6=
EXTT7=
EXTT8=
EXTT9=
EXTT10=
PLAYORDER=
